<?xml version="1.0" encoding="UTF-8" standalone="no"?>
<svg
   xmlns:dc="http://purl.org/dc/elements/1.1/"
   xmlns:cc="http://creativecommons.org/ns#"
   xmlns:rdf="http://www.w3.org/1999/02/22-rdf-syntax-ns#"
   xmlns:svg="http://www.w3.org/2000/svg"
   xmlns="http://www.w3.org/2000/svg"
   xmlns:sodipodi="http://sodipodi.sourceforge.net/DTD/sodipodi-0.dtd"
   xmlns:inkscape="http://www.inkscape.org/namespaces/inkscape"
   width="170px"
   viewBox="0 0 170 170"
   version="1.1"
   height="170px"
   id="svg4"
   sodipodi:docname="suse_apple.svg"
   inkscape:version="0.92.1 r15371">
  <metadata
     id="metadata10">
    <rdf:RDF>
      <cc:Work
         rdf:about="">
        <dc:format>image/svg+xml</dc:format>
        <dc:type
           rdf:resource="http://purl.org/dc/dcmitype/StillImage" />
        <dc:title />
      </cc:Work>
    </rdf:RDF>
  </metadata>
  <defs
     id="defs8" />
  <sodipodi:namedview
     pagecolor="#ffffff"
     bordercolor="#666666"
     borderopacity="1"
     objecttolerance="10"
     gridtolerance="10"
     guidetolerance="10"
     inkscape:pageopacity="0"
     inkscape:pageshadow="2"
     inkscape:window-width="1366"
     inkscape:window-height="705"
     id="namedview6"
     showgrid="false"
     inkscape:zoom="1.9320404"
     inkscape:cx="82.24264"
     inkscape:cy="84.998552"
     inkscape:window-x="-8"
     inkscape:window-y="-8"
     inkscape:window-maximized="1"
     inkscape:current-layer="svg4" />
  <path
     d="M 116.18359 3.9980469 C 112.07359 4.2112469 107.70203 5.4573844 103.08203 7.7089844 C 98.452033 9.9946844 94.634812 12.860641 91.632812 16.306641 C 85.619812 23.112641 82.234375 31.436844 82.234375 39.214844 C 82.234375 40.289844 82.302875 41.311203 82.421875 42.283203 C 91.760875 43.042203 100.37219 38.232203 107.49219 29.908203 C 113.39219 22.906203 116.35352 15.342334 116.35352 7.2402344 C 116.35352 6.1656344 116.30359 5.0811469 116.18359 3.9980469 z M 113.50391 42.367188 C 108.8595 42.324407 103.36367 43.439719 96.998047 45.730469 C 89.305047 48.553469 84.766734 49.970703 83.427734 49.970703 C 81.636734 49.970703 77.551453 48.759094 71.189453 46.371094 C 64.809453 43.991094 59.674766 42.779297 55.759766 42.779297 C 48.604766 42.898297 41.9615 44.758203 35.8125 48.408203 C 29.6635 52.058203 24.751594 57.030984 21.058594 63.333984 C 16.359594 71.180984 14.011719 80.545344 14.011719 91.402344 C 14.011719 100.88034 15.753609 110.6693 19.224609 120.7793 C 22.465609 130.1393 26.600812 138.34969 31.632812 145.42969 C 36.322813 152.05969 40.239141 156.7407 43.369141 159.4707 C 48.273141 164.0307 53.186234 166.20023 58.115234 165.99023 C 61.356234 165.88023 65.595422 164.77062 70.857422 162.64062 C 76.111422 160.52063 81.023516 159.4707 85.603516 159.4707 C 89.970516 159.4707 94.746359 160.52064 99.943359 162.64062 C 105.12336 164.77062 109.57172 165.82031 113.26172 165.82031 C 118.40172 165.70031 123.20359 163.5907 127.68359 159.4707 C 130.57359 156.9607 134.32234 152.44016 138.90234 145.91016 C 142.26234 141.12016 145.16328 135.91 147.61328 130.25 C 148.62328 127.85 149.57266 125.35023 150.47266 122.74023 C 146.32266 121.00023 142.59195 118.55086 139.25195 115.38086 C 131.88195 108.55086 128.13344 99.948328 128.02344 89.611328 C 127.90344 76.340328 133.93305 65.995375 146.12305 58.609375 C 139.31305 48.929375 129.07336 43.555078 115.44336 42.455078 C 114.81461 42.401703 114.16739 42.373299 113.50391 42.367188 z M 57.216797 51.539062 C 58.724586 51.746299 90.970661 56.231018 104.55078 63.679688 C 106.2303 64.608477 107.0575 65.582841 108.09766 66.583984 C 111.68176 70.070601 116.38802 84.096753 117.25977 88.082031 C 117.31998 88.370465 117.40837 88.621616 117.14648 88.898438 C 116.95281 88.965142 116.47959 89.276841 115.86133 89.673828 C 114.59366 90.513626 114.49798 90.552399 113.20898 91.222656 L 110.92969 92.478516 C 109.72155 93.062663 108.50676 93.582974 107.28125 94.041016 L 106.01367 94.498047 C 104.97592 94.849612 104.91484 94.857656 103.86523 95.130859 L 102.69727 93.955078 L 101.55859 95.761719 C 99.895016 96.144503 98.217096 96.440358 96.525391 96.662109 L 94.898438 96.853516 C 93.609373 96.987415 93.321911 97.040541 92.017578 97.103516 L 90.945312 95.511719 L 89.443359 97.210938 C 88.377434 97.243095 87.307962 97.258373 86.232422 97.253906 L 85.019531 97.242188 C 83.69554 97.222982 83.324181 97.186911 81.986328 97.130859 L 81.029297 95.269531 L 79.958984 97.080078 C 78.63442 97.017327 77.30603 96.945461 75.96875 96.863281 L 75.042969 96.802734 C 73.270386 96.690541 72.699946 96.641681 70.90625 96.527344 L 69.697266 94.601562 L 68.699219 96.394531 C 68.197211 96.363267 67.702801 96.328082 67.199219 96.298828 L 67.511719 99.847656 C 67.900905 99.923583 68.297508 99.994389 68.699219 100.0625 L 69.697266 100.21875 C 71.38995 100.47371 71.769313 100.49938 73.630859 100.62891 L 75.042969 102.92773 L 76.599609 100.8418 C 77.898932 100.9175 78.604909 100.95674 79.958984 100.97461 L 81.029297 100.98828 C 82.342696 100.99163 82.429215 100.96576 83.773438 100.91797 L 85.021484 102.5918 L 86.232422 100.86523 C 87.342746 100.81343 88.459498 100.74178 89.578125 100.65625 L 91.142578 100.52539 C 92.511541 100.40214 92.642387 100.41001 94.003906 100.23828 L 95.425781 101.85352 L 96.863281 99.857422 C 98.58698 99.6145 100.29163 99.331471 101.96484 99.013672 L 103.29492 98.746094 C 104.5899 98.481801 105.85759 98.192963 107.09961 97.884766 L 108.89453 99.064453 L 109.54102 97.208984 C 110.81825 96.869858 109.56806 97.208846 110.76367 96.822266 L 111.90625 96.4375 C 112.58351 96.203712 113.25055 95.965001 113.89258 95.714844 L 114.9082 95.535156 C 115.19211 95.744871 115.15006 96.148346 115.0625 96.525391 C 114.86623 97.386716 114.42818 98.967158 114.12305 99.701172 L 113.875 100.31445 C 113.51148 101.22328 113.15388 102.09877 112.47461 102.62305 C 110.59059 104.23583 108.93168 105.15335 104.22461 107.0957 C 96.944518 110.08917 85.14751 111.97218 74.183594 111.91211 C 70.259048 111.8298 66.456361 111.42147 63.121094 111.06445 C 59.721411 110.71039 58.275632 110.68677 57 108.53906 C 59.256721 105.33181 59.787482 100.80557 59.792969 99.796875 C 59.808715 97.872793 56.074123 92.172379 53.703125 85.978516 C 53.868528 79.885367 54.40657 71.783467 55.527344 59.560547 C 55.540561 58.861571 56.871094 51.808594 56.871094 51.808594 L 56.96875 51.609375 L 57.216797 51.539062 z M 61.707031 56.337891 L 61.707031 56.339844 C 61.579752 56.335377 61.458555 56.335097 61.341797 56.341797 C 60.563496 56.389452 60.025101 56.744497 59.822266 57.787109 C 58.367846 68.212567 58.093176 78.244994 61.490234 86.998047 C 61.954524 88.061919 63.091365 88.205501 63.693359 87.216797 C 67.684467 75.879544 71.92489 70.141777 80.142578 61.148438 C 80.788184 60.599261 80.700174 59.682236 79.703125 59.599609 C 75.952739 59.124172 67.654614 57.332606 62.980469 56.503906 C 62.515845 56.421726 62.088845 56.353523 61.707031 56.337891 z M 92.568359 64.380859 C 89.135992 64.429319 85.909164 65.637412 83.386719 67.863281 C 80.685486 70.217691 79.126117 73.434989 78.996094 76.900391 C 78.749169 84.043119 84.726257 90.07267 92.320312 90.339844 C 96.018928 90.452171 99.519626 89.214128 102.21289 86.839844 C 104.89811 84.477842 106.44864 81.279908 106.58398 77.820312 C 106.84403 70.667535 100.86694 64.638051 93.259766 64.380859 C 93.029422 64.37416 92.797176 64.37416 92.568359 64.380859 z M 111.75977 82.576172 C 110.87108 82.512974 109.65022 83.611314 108.86523 85.177734 C 107.97409 86.955768 107.95495 88.70494 108.82422 89.085938 C 109.69382 89.466689 111.1226 88.334987 112.01367 86.556641 C 112.90501 84.777982 112.92079 83.026611 112.05078 82.646484 C 111.96108 82.607404 111.86374 82.582871 111.75977 82.576172 z M 120.02734 106.16211 C 125.76753 106.09355 122.49949 112.37071 124.54297 114.12109 C 127.13007 116.33705 131.59365 112.96709 131.00977 120.35547 C 130.4379 127.59078 122.68235 128.90075 116.94727 122.27344 L 93.642578 130.47461 L 83.357422 126.55469 L 110.99414 116.32812 C 109.71872 109.15659 114.01313 106.23379 120.02734 106.16211 z M 46.667969 107.29883 C 52.682186 107.37029 56.974732 110.29331 55.699219 117.46484 L 117.90039 140.48438 L 117.90039 140.48242 C 121.94589 137.45586 127.94391 135.00477 130.0918 139.89648 C 131.878 143.96403 128.94749 142.51443 125.94336 145.65625 C 123.71128 147.99078 128.04999 150.85076 125.43164 151.49219 C 121.8349 152.37316 116.49956 152.86708 117.23828 147.16406 L 49.746094 123.41211 C 44.011247 130.03952 36.255408 128.72954 35.683594 121.49414 C 35.099803 114.1057 39.563292 117.47579 42.150391 115.25977 C 44.193779 113.50942 40.927635 107.23049 46.667969 107.29883 z M 70.144531 131.7168 L 80.162109 135.32422 L 49.453125 146.02734 C 50.191751 151.73032 44.85651 151.23858 41.259766 150.35742 C 38.641533 149.71584 42.980099 146.85407 40.748047 144.51953 C 37.744016 141.37771 34.813547 142.82745 36.599609 138.75977 C 38.747493 133.86812 44.745513 136.32107 48.791016 139.34766 L 70.144531 131.7168 z "
     id="path2" />
  <g
     id="g3685">
    <g
       transform="matrix(2.385742,0,0,2.2331494,-35.941393,499.28489)"
       id="g10"
       style="fill:#ffffff;stroke:none" />
  </g>
</svg>
